<svg width="498" height="476" viewBox="0 0 498 476" fill="none" xmlns="http://www.w3.org/2000/svg">
<path d="M232.12 0.537486C234.254 0.80623 237.385 0.80623 239.236 0.537486C240.943 0.268741 239.236 -3.01749e-06 235.251 -3.01749e-06C231.408 -3.01749e-06 229.843 0.268741 232.12 0.537486Z" fill="#0A0404"/>
<path d="M259.872 0.537486C261.579 0.80623 264.426 0.80623 266.276 0.537486C267.984 0.268741 266.56 -3.01749e-06 263.003 -3.01749e-06C259.445 -3.01749e-06 258.021 0.268741 259.872 0.537486Z" fill="#0A0404"/>
<path d="M217.176 1.88274C218.03 2.15184 219.738 2.15184 220.734 1.88274C221.588 1.47909 220.877 1.20999 218.884 1.20999C216.892 1.20999 216.18 1.47909 217.176 1.88274Z" fill="#0A0404"/>
<path d="M278.373 1.88274C279.227 2.15184 280.935 2.15184 281.931 1.88274C282.785 1.47909 282.073 1.20999 280.081 1.20999C278.088 1.20999 277.377 1.47909 278.373 1.88274Z" fill="#0A0404"/>
<path d="M207.214 3.22829C208.21 3.63194 209.491 3.49739 209.918 3.09374C210.487 2.69009 209.634 2.28644 208.068 2.42099C206.503 2.42099 206.076 2.82464 207.214 3.22829Z" fill="#0A0404"/>
<path d="M296.874 4.57381C297.87 4.97746 299.151 4.84291 299.578 4.43926C300.147 4.03561 299.293 3.63196 297.728 3.76651C296.162 3.76651 295.736 4.17016 296.874 4.57381Z" fill="#0A0404"/>
<path d="M192.982 5.91924C193.979 6.32289 195.259 6.18834 195.686 5.78469C196.256 5.38104 195.402 4.97739 193.836 5.11194C192.271 5.11194 191.844 5.51559 192.982 5.91924Z" fill="#0A0404"/>
<path d="M399.627 48.5717C399.627 48.8408 400.766 49.9172 402.189 50.8591C404.324 52.6082 404.466 52.4737 402.616 50.3209C400.766 48.1681 399.627 47.4953 399.627 48.5717Z" fill="#0A0404"/>
<path d="M92.0793 53.0118C90.2292 55.1647 90.3715 55.2992 92.6486 53.55C94.9257 51.8009 95.6373 50.7245 94.4987 50.7245C94.2141 50.7245 93.0756 51.8009 92.0793 53.0118Z" fill="#0A0404"/>
<path d="M409.589 56.7793C411.44 58.663 413.29 60.143 413.574 60.143C414.001 60.143 412.863 58.663 411.013 56.7793C409.162 54.8956 407.312 53.4155 407.028 53.4155C406.601 53.4155 407.739 54.8956 409.589 56.7793Z" fill="#0A0404"/>
<path d="M74.432 68.4852L63.0466 79.6529L74.8589 68.8888C85.6751 58.9321 87.2406 57.4521 86.102 57.4521C85.9597 57.4521 80.694 62.4304 74.432 68.4852Z" fill="#0A0404"/>
<path d="M422.398 67.5433C425.102 70.0998 427.521 72.2526 427.948 72.2526C428.375 72.2526 426.525 70.0998 423.821 67.5433C421.117 64.9868 418.698 62.834 418.271 62.834C417.844 62.834 419.694 64.9868 422.398 67.5433Z" fill="#0A0404"/>
<path d="M435.918 81.6711C437.341 83.1511 438.765 84.3621 439.191 84.3621C439.618 84.3621 438.765 83.1511 437.341 81.6711C435.918 80.191 434.495 78.9801 434.068 78.9801C433.641 78.9801 434.495 80.191 435.918 81.6711Z" fill="#0A0404"/>
<path d="M57.9232 85.3039C56.073 87.4567 56.2154 87.5913 58.4924 85.8421C59.7733 84.9003 60.9118 83.8239 60.9118 83.5548C60.9118 82.4784 59.7733 83.1511 57.9232 85.3039Z" fill="#0A0404"/>
<path d="M440.899 87.5913C440.899 87.8604 442.038 88.9368 443.461 89.8786C445.596 91.6278 445.738 91.4932 443.888 89.3404C442.038 87.1876 440.899 86.5149 440.899 87.5913Z" fill="#0A0404"/>
<path d="M52.2305 92.0315C50.3804 94.1843 50.5227 94.3189 52.7998 92.5697C54.0806 91.6278 55.2191 90.5514 55.2191 90.2823C55.2191 89.2059 54.0806 89.8787 52.2305 92.0315Z" fill="#0A0404"/>
<path d="M166.227 94.3188C166.227 94.7225 169.642 96.6062 173.912 98.6244C183.02 102.795 187.859 107.37 190.421 113.963C191.559 116.789 192.555 129.167 193.125 145.582L193.979 172.493L217.746 204.785C230.839 222.545 243.22 239.364 245.213 242.055C247.348 244.881 249.625 247.168 250.336 247.168C251.048 247.168 251.617 226.716 251.617 195.635C251.617 167.38 252.044 141.95 252.471 139.124L253.467 134.146H293.458C336.865 134.146 344.835 135.088 350.955 141.142C360.632 150.965 360.632 169.667 350.955 178.278C343.554 185.006 339 185.678 301.144 186.351L265.849 186.889V206.937V226.985H309.683C355.367 227.12 360.632 227.658 367.179 233.309C372.587 237.884 374.579 243.401 374.579 253.357C374.437 268.831 368.744 275.02 351.382 278.115C347.112 278.787 327.899 279.46 308.544 279.46H273.249L279.796 288.609C283.496 293.722 290.185 302.872 294.739 308.927C299.151 315.116 302.851 320.229 302.851 320.498C302.851 320.902 299.436 322.113 295.451 323.458C288.762 325.476 279.796 325.745 218.6 326.284L149.149 326.687V249.455C149.149 162.267 149.149 162.267 158.969 153.925C161.957 151.368 166.796 148.543 169.642 147.601C172.489 146.793 174.766 145.448 174.766 144.775C174.766 144.102 151.995 143.564 118.55 143.564C87.6675 143.564 62.335 143.968 62.335 144.506C62.335 145.179 66.3199 147.466 71.1587 149.619C78.7015 153.117 80.5516 154.732 83.5403 160.383L87.2406 166.976L87.6675 251.743C87.9521 309.33 87.5252 338.662 86.529 343.506C84.2519 354.001 80.1247 358.845 69.5932 363.689L60.6272 367.994L66.0353 368.667C74.005 369.609 309.967 369.743 315.375 368.801L319.929 367.86V344.044V320.229L348.82 319.422C380.272 318.48 392.369 316.596 404.466 310.945C419.836 303.814 428.802 293.453 433.214 277.576C435.776 268.292 435.776 245.688 433.072 235.866C429.087 221.603 419.836 210.436 406.743 204.112L400.908 201.286L405.747 196.173C415.282 186.217 420.263 166.438 418.129 146.793C415.851 125.4 406.743 111.003 390.946 103.468C371.448 94.3188 375.291 94.5879 265.564 94.0497C210.914 93.9152 166.227 93.9152 166.227 94.3188Z" fill="#0A0404"/>
<path d="M6.97353 182.046C6.97353 183.526 7.40049 183.929 7.82744 182.853C8.25439 181.911 8.11207 180.7 7.68512 180.296C7.25817 179.758 6.83122 180.566 6.97353 182.046Z" fill="#0A0404"/>
<path d="M493.699 198.192C493.699 199.672 494.126 200.075 494.553 198.999C494.98 198.057 494.838 196.846 494.411 196.442C493.984 195.904 493.557 196.712 493.699 198.192Z" fill="#0A0404"/>
<path d="M2.70403 203.574C2.70403 205.054 3.13099 205.457 3.55794 204.381C3.98489 203.439 3.84257 202.228 3.41562 201.825C2.98867 201.286 2.56172 202.094 2.70403 203.574Z" fill="#0A0404"/>
<path d="M495.122 207.61C495.122 209.09 495.549 209.494 495.976 208.417C496.403 207.476 496.261 206.265 495.834 205.861C495.407 205.323 494.98 206.13 495.122 207.61Z" fill="#0A0404"/>
<path d="M1.42316 214.203C1.42316 216.356 1.70779 217.163 2.13474 215.818C2.41938 214.607 2.41938 212.723 2.13474 211.781C1.70779 210.974 1.42316 211.916 1.42316 214.203Z" fill="#0A0404"/>
<path d="M496.83 222.949C496.83 226.313 497.115 227.658 497.399 225.909C497.684 224.294 497.684 221.603 497.399 219.854C497.115 218.24 496.83 219.585 496.83 222.949Z" fill="#0A0404"/>
<path d="M0 239.095C0 240.979 0.284635 241.651 0.711587 240.71C0.996222 239.902 0.996222 238.288 0.711587 237.346C0.284635 236.538 0 237.211 0 239.095Z" fill="#0A0404"/>
<path d="M496.83 252.55C496.83 255.914 497.115 257.259 497.399 255.51C497.684 253.895 497.684 251.204 497.399 249.455C497.115 247.841 496.83 249.186 496.83 252.55Z" fill="#0A0404"/>
<path d="M1.42316 261.296C1.42316 263.448 1.70779 264.256 2.13474 262.91C2.41938 261.699 2.41938 259.816 2.13474 258.874C1.70779 258.066 1.42316 259.008 1.42316 261.296Z" fill="#0A0404"/>
<path d="M495.122 268.158C495.122 269.638 495.549 270.041 495.976 268.965C496.403 268.023 496.261 266.812 495.834 266.409C495.407 265.87 494.98 266.678 495.122 268.158Z" fill="#0A0404"/>
<path d="M2.70403 272.194C2.70403 273.674 3.13099 274.078 3.55794 273.002C3.98489 272.06 3.84257 270.849 3.41562 270.445C2.98867 269.907 2.56172 270.714 2.70403 272.194Z" fill="#0A0404"/>
<path d="M493.699 277.576C493.699 279.056 494.126 279.46 494.553 278.384C494.98 277.442 494.838 276.231 494.411 275.827C493.984 275.289 493.557 276.096 493.699 277.576Z" fill="#0A0404"/>
<path d="M4.12722 281.613C4.12722 283.093 4.55417 283.497 4.98112 282.42C5.40808 281.478 5.26576 280.267 4.83881 279.864C4.41185 279.325 3.9849 280.133 4.12722 281.613Z" fill="#0A0404"/>
<path d="M5.55038 288.34C5.55038 289.82 5.97733 290.224 6.40428 289.148C6.83123 288.206 6.68892 286.995 6.26196 286.591C5.83501 286.053 5.40806 286.86 5.55038 288.34Z" fill="#0A0404"/>
<path d="M442.18 386.697C440.33 388.849 440.472 388.984 442.749 387.235C444.03 386.293 445.169 385.217 445.169 384.947C445.169 383.871 444.03 384.544 442.18 386.697Z" fill="#0A0404"/>
<path d="M57.3539 389.791C58.7771 391.271 60.2003 392.482 60.6272 392.482C61.0542 392.482 60.2003 391.271 58.7771 389.791C57.3539 388.311 55.9307 387.1 55.5038 387.1C55.0768 387.1 55.9307 388.311 57.3539 389.791Z" fill="#0A0404"/>
<path d="M436.487 393.424L433.072 397.192L437.057 393.962C440.615 390.868 441.611 389.791 440.472 389.791C440.188 389.791 438.48 391.406 436.487 393.424Z" fill="#0A0404"/>
<path d="M73.7204 406.61C80.4093 412.934 86.102 418.047 86.529 418.047C86.8136 418.047 81.8325 412.934 75.1436 406.61C68.4547 400.286 62.762 395.173 62.335 395.173C62.0504 395.173 67.0315 400.286 73.7204 406.61Z" fill="#0A0404"/>
<path d="M423.11 407.552L417.417 413.338L423.537 407.956C429.087 403.112 430.225 401.901 429.087 401.901C428.802 401.901 426.098 404.457 423.11 407.552Z" fill="#0A0404"/>
<path d="M407.312 421.007L404.608 424.102L407.882 421.545C410.87 419.123 411.724 418.047 410.586 418.047C410.301 418.047 408.878 419.392 407.312 421.007Z" fill="#0A0404"/>
<path d="M90.7985 421.276C90.7985 421.545 91.937 422.622 93.3602 423.563C95.495 425.313 95.6373 425.178 93.7872 423.025C91.937 420.872 90.7985 420.2 90.7985 421.276Z" fill="#0A0404"/>
<path d="M97.9144 426.658C97.9144 426.927 99.0529 428.004 100.476 428.945C102.611 430.695 102.753 430.56 100.903 428.407C99.0529 426.254 97.9144 425.582 97.9144 426.658Z" fill="#0A0404"/>
<path d="M303.99 470.118C304.986 470.522 306.267 470.387 306.694 469.983C307.263 469.58 306.409 469.176 304.844 469.311C303.278 469.311 302.851 469.714 303.99 470.118Z" fill="#0A0404"/>
<path d="M198.675 471.463C199.671 471.867 200.952 471.732 201.379 471.329C201.948 470.925 201.095 470.521 199.529 470.656C197.964 470.656 197.537 471.06 198.675 471.463Z" fill="#0A0404"/>
<path d="M205.791 472.809C206.787 473.213 208.068 473.078 208.495 472.674C209.064 472.271 208.21 471.867 206.645 472.002C205.079 472.002 204.652 472.405 205.791 472.809Z" fill="#0A0404"/>
<path d="M289.758 472.809C290.754 473.213 292.035 473.078 292.462 472.674C293.032 472.271 292.178 471.867 290.612 472.002C289.047 472.002 288.62 472.405 289.758 472.809Z" fill="#0A0404"/>
<path d="M215.753 474.154C216.607 474.423 218.315 474.423 219.311 474.154C220.165 473.751 219.453 473.482 217.461 473.482C215.469 473.482 214.757 473.751 215.753 474.154Z" fill="#0A0404"/>
<path d="M279.796 474.154C280.792 474.558 282.073 474.423 282.5 474.02C283.069 473.616 282.215 473.213 280.65 473.347C279.084 473.347 278.657 473.751 279.796 474.154Z" fill="#0A0404"/>
<path d="M229.985 475.5C231.693 475.769 234.539 475.769 236.389 475.5C238.097 475.231 236.674 474.963 233.116 474.963C229.558 474.963 228.135 475.231 229.985 475.5Z" fill="#0A0404"/>
<path d="M264.141 475.5C265.849 475.769 268.411 475.769 269.834 475.5C271.115 475.096 269.691 474.827 266.56 474.962C263.429 474.962 262.291 475.231 264.141 475.5Z" fill="#0A0404"/>
</svg>
